<?xml version="1.0" encoding="UTF-8"?>
<svg id="Layer_2" data-name="Layer 2" xmlns="http://www.w3.org/2000/svg" viewBox="0 0 430.41 240.05">
  <defs>
    <style>
      .cls-1 {
        opacity: .6;
      }

      .cls-2 {
        opacity: .2;
      }

      .cls-3 {
        opacity: .8;
      }

      .cls-4 {
        opacity: .4;
      }

      .cls-5 {
        opacity: .1;
      }

      .cls-6 {
        fill: #999;
      }
    </style>
  </defs>
  <g id="Layer_1-2" data-name="Layer 1">
    <g>
      <g>
        <path class="cls-6" d="m86.53,240.04H0V96.63h86.53v13.61H13.61v68.55h63.69v13.61H13.61v34.03h72.92v13.61Z"/>
        <path class="cls-6" d="m181.85,168.94l63.66,71.11h-18.27l-54.44-60.82-8.71,9.9v50.91h-13.61V96.63h13.61v71.89l63.23-71.89h18.13l-63.59,72.31Z"/>
        <path class="cls-6" d="m287,168.34c0-39.6,32.11-71.71,71.71-71.71s71.71,32.11,71.71,71.71-32.1,71.71-71.71,71.71c-39.58-.04-71.66-32.12-71.71-71.71Zm13.61,0c0,32.08,26.01,58.09,58.09,58.09s58.09-26.01,58.09-58.09-26.01-58.09-58.09-58.09c-32.07.04-58.06,26.02-58.09,58.09Z"/>
      </g>
      <g class="cls-3">
        <path class="cls-6" d="m86.53,229.49H0V86.08h86.53v13.61H13.61v68.55h63.69v13.61H13.61v34.03h72.92v13.61Z"/>
        <path class="cls-6" d="m181.85,158.38l63.66,71.11h-18.27l-54.44-60.82-8.71,9.9v50.91h-13.61V86.08h13.61v71.89l63.23-71.89h18.13l-63.59,72.31Z"/>
        <path class="cls-6" d="m287,157.78c0-39.6,32.11-71.71,71.71-71.71s71.71,32.1,71.71,71.71-32.1,71.71-71.71,71.71c-39.58-.04-71.66-32.12-71.71-71.71Zm13.61,0c0,32.08,26.01,58.09,58.09,58.09s58.09-26.01,58.09-58.09-26.01-58.09-58.09-58.09c-32.07.04-58.06,26.03-58.09,58.09Z"/>
      </g>
      <g class="cls-1">
        <path class="cls-6" d="m86.53,210.7H0V67.29h86.53v13.61H13.61v68.55h63.69v13.61H13.61v34.03h72.92v13.61Z"/>
        <path class="cls-6" d="m181.85,139.59l63.66,71.11h-18.27l-54.44-60.82-8.71,9.9v50.91h-13.61V67.29h13.61v71.89l63.23-71.89h18.13l-63.59,72.31Z"/>
        <path class="cls-6" d="m287,139c0-39.6,32.11-71.71,71.71-71.71s71.71,32.1,71.71,71.71-32.1,71.71-71.71,71.71c-39.58-.04-71.66-32.12-71.71-71.71Zm13.61,0c0,32.08,26.01,58.09,58.09,58.09s58.09-26.01,58.09-58.09-26.01-58.09-58.09-58.09c-32.07.04-58.06,26.03-58.09,58.09Z"/>
      </g>
      <g class="cls-4">
        <path class="cls-6" d="m86.53,190.2H0V46.78h86.53v13.61H13.61v68.55h63.69v13.61H13.61v34.03h72.92v13.61Z"/>
        <path class="cls-6" d="m181.85,119.09l63.66,71.11h-18.27l-54.44-60.82-8.71,9.9v50.91h-13.61V46.78h13.61v71.89l63.23-71.89h18.13l-63.59,72.31Z"/>
        <path class="cls-6" d="m287,118.49c0-39.6,32.11-71.71,71.71-71.71s71.71,32.11,71.71,71.71-32.1,71.71-71.71,71.71c-39.58-.04-71.66-32.12-71.71-71.71Zm13.61,0c0,32.08,26.01,58.09,58.09,58.09s58.09-26.01,58.09-58.09-26.01-58.09-58.09-58.09c-32.07.04-58.06,26.02-58.09,58.09Z"/>
      </g>
      <g class="cls-2">
        <path class="cls-6" d="m86.53,167.75H0V24.34h86.53v13.61H13.61v68.55h63.69v13.61H13.61v34.03h72.92v13.61Z"/>
        <path class="cls-6" d="m181.85,96.65l63.66,71.11h-18.27l-54.44-60.82-8.71,9.9v50.91h-13.61V24.34h13.61v71.89l63.23-71.89h18.13l-63.59,72.31Z"/>
        <path class="cls-6" d="m287,96.05c0-39.6,32.11-71.71,71.71-71.71s71.71,32.1,71.71,71.71-32.1,71.71-71.71,71.71c-39.58-.04-71.66-32.12-71.71-71.71Zm13.61,0c0,32.08,26.01,58.09,58.09,58.09s58.09-26.01,58.09-58.09-26.01-58.09-58.09-58.09c-32.07.04-58.06,26.03-58.09,58.09Z"/>
      </g>
      <g class="cls-5">
        <path class="cls-6" d="m86.53,143.41H0V0h86.53v13.61H13.61v68.55h63.69v13.61H13.61v34.03h72.92v13.61Z"/>
        <path class="cls-6" d="m181.85,72.31l63.66,71.11h-18.27l-54.44-60.82-8.71,9.9v50.91h-13.61V0h13.61v71.89L227.31,0h18.13l-63.59,72.31Z"/>
        <path class="cls-6" d="m287,71.71c0-39.6,32.11-71.71,71.71-71.71s71.71,32.11,71.71,71.71-32.1,71.71-71.71,71.71c-39.58-.04-71.66-32.12-71.71-71.71Zm13.61,0c0,32.08,26.01,58.09,58.09,58.09s58.09-26.01,58.09-58.09-26.01-58.09-58.09-58.09c-32.07.04-58.06,26.02-58.09,58.09Z"/>
      </g>
    </g>
  </g>
</svg>